<?xml version="1.0" encoding="iso-8859-1"?>
<!-- Generator: Adobe Illustrator 21.0.0, SVG Export Plug-In . SVG Version: 6.00 Build 0)  -->
<svg version="1.1" id="icon_x5F_victory" xmlns="http://www.w3.org/2000/svg" xmlns:xlink="http://www.w3.org/1999/xlink" x="0px"
	 y="0px" viewBox="0 0 102 99.8" style="enable-background:new 0 0 102 99.8;" xml:space="preserve">
<g style="opacity:0.8;">
	<g>
		<path style="fill:#FF0049;" d="M32.96,24.311c0.741,0.095,1.593,0.447,2.555,1.056c0.085,0.061,0.149,0.117,0.189,0.171
			c4.198-0.732,7.071-1.073,8.621-1.022c2.492,0.805,3.68,1.663,3.564,2.572c-1.793,5.567-3.408,14.004-4.847,25.313
			c-0.153,1.197-0.276,2.351-0.37,3.459c3.905-1.402,6.823-3.393,8.755-5.972c0.491-0.521,0.948-1.146,1.371-1.871
			c-1.918,0.244-3.726,0.549-5.423,0.918c-0.325-0.042-0.689-0.526-1.089-1.454c-0.492-1.328-0.726-2.088-0.701-2.28
			c0.037-0.287,0.363-0.439,0.979-0.46c2.146,0.177,4.871,0.085,8.172-0.274c0.804-1.505,1.563-3.209,2.278-5.114
			c-2.011,0.23-4.173,0.54-6.487,0.927c-0.417-0.053-0.698-0.819-0.839-2.298c-0.104-1.036-0.142-1.673-0.111-1.913
			c0.079-0.622,0.512-0.885,1.302-0.784c2.095,0.219,4.659,0.277,7.691,0.176c0.668-1.912,1.292-3.854,1.873-5.824
			c-0.857,0.427-1.495,0.808-1.915,1.145c-0.591,0.558-1.267,1.056-2.03,1.494c-0.658,0.354-1.159,0.777-1.505,1.27
			c-0.234,0.36-0.608,0.507-1.118,0.441c-0.558-0.07-1.117-0.677-1.679-1.82c-0.894-1.136-1.312-1.92-1.257-2.351
			c0.03-0.239,0.358-0.417,0.986-0.531c1.051-0.11,2.061-0.25,3.025-0.419c1.076-0.302,3.076-0.632,5.999-0.99
			c0.596-2.456,1.074-4.928,1.439-7.412c0.146-1.15,0.403-1.702,0.776-1.655c0.975,0.124,2.06,0.677,3.256,1.656
			c0.789,0.831,1.137,1.631,1.039,2.396c-0.243,1.917-1.121,4.727-2.629,8.43c4.198-2.971,6.93-4.79,8.195-5.458
			c0.42-0.335,0.722-0.491,0.908-0.468c0.278,0.035,0.835,0.472,1.673,1.309c0.545,0.897,0.795,1.538,0.746,1.92
			c-0.042,0.337-0.385,0.804-1.026,1.403c-1.409,0.309-2.791,0.79-4.146,1.444c-1.567,0.823-4.064,1.724-7.49,2.699
			c-0.142,0.372-0.284,0.743-0.425,1.115c2.283-0.148,4.767-0.392,7.451-0.732c1.54-0.242,2.502-0.387,2.886-0.437
			c0.307,0.186,0.416,0.809,0.329,1.868c-0.162,0.905-0.605,1.603-1.328,2.096c-4.158,0.785-7.885,1.164-11.183,1.134
			c-0.794,1.798-1.62,3.471-2.478,5.017c1.423-0.063,2.938-0.112,4.547-0.152c-0.108-0.257-0.146-0.505-0.116-0.745
			c0.079-0.622,0.298-1.423,0.658-2.399c0.317-0.642,0.73-0.93,1.242-0.864c0.279,0.035,0.642,0.52,1.09,1.453
			c0.459,0.838,0.964,1.682,1.518,2.53c2.024,0.015,3.792-0.15,5.298-0.495c1.309-0.271,2.287-0.366,2.937-0.283
			c0.742,0.094,1.371,1.83,1.886,5.206c-0.119,0.569-0.505,0.813-1.154,0.729l-3.584-0.747c-0.649-0.083-1.535-0.171-2.655-0.266
			c1.023,1.591,2.057,3.306,3.097,5.142c0.924,1.628,2.128,3.096,3.614,4.403c2.797,2.109,4.865,4.028,6.201,5.757
			c0.928,1.238,1.364,2.072,1.309,2.504c-0.072,0.574-1.571,0.676-4.496,0.304c-1.068-0.136-1.963-0.517-2.685-1.145
			c-1.198-0.591-2.604-1.037-4.216-1.34c-1.056-0.231-1.496-1.042-1.319-2.433c0.046-0.725,0.041-1.43-0.012-2.119
			c-1.387,1.625-2.397,3.445-3.029,5.457c-1.542,4.333-2.973,7.413-4.29,9.243c-0.872,1.301-1.622,2.544-2.243,3.731
			c-0.102,0.425-0.338,0.614-0.709,0.567c-0.511-0.065-1.015-0.373-1.511-0.923s-1.137-1.266-1.921-2.144
			c-1.958-1.662-3.576-3.961-4.854-6.898c-0.648,0.647-1.321,1.293-2.016,1.935c-1.044,0.791-1.733,1.58-2.068,2.366
			c-0.611,1.091-1.869,1.515-3.771,1.273c-1.531-0.195-2.937-0.643-4.216-1.34c-0.133-0.066-0.243-0.13-0.33-0.188
			c-0.29,0.79-0.737,1.148-1.34,1.071c-0.464-0.059-1.002-0.273-1.616-0.644c-1.854-0.626-3.741-2.108-5.661-4.445
			c-1.22-1.909-2.292-3.871-3.213-5.887c0.024-0.19,0.221-0.265,0.593-0.218c3.168,2.157,5.195,3.291,6.077,3.403
			c0.697,0.089,1.375-1.724,2.036-5.438c1.582-10.948,2.952-20.78,4.108-29.496c0.244-1.916-0.122-2.938-1.097-3.062
			c-1.068-0.136-2.652,0.078-4.75,0.638c-0.097,0.379-0.177,0.83-0.244,1.357c-0.244,1.917-0.522,3.73-0.834,5.444
			c1.033,0.034,2.259,0.044,3.676,0.029c0.33-0.006,0.567-0.001,0.706,0.017c0.266,0.132,0.37,0.607,0.313,1.428
			c-0.157,0.856-0.593,1.508-1.31,1.951c-1.048,0.451-1.956,0.726-2.722,0.823c-0.436,0.09-0.932,0.271-1.485,0.541
			c-0.478,2.276-0.976,4.331-1.491,6.165l-0.009,0.072c1.224,0.009,2.723-0.093,4.497-0.305c0.429-0.043,0.717-0.079,0.862-0.11
			c0.266,0.133,0.364,0.656,0.295,1.571c-0.163,0.905-0.605,1.604-1.329,2.096c-1.264,0.668-2.376,1.063-3.334,1.183
			c-0.768,0.098-1.602,0.356-2.504,0.777c-0.616,1.869-1.359,3.82-2.23,5.852c-0.596,1.337-0.917,2.196-0.965,2.579
			c-0.079,0.623-0.085,1.037-0.016,1.24c0.067,0.203,0.097,0.523,0.089,0.961c-0.049,0.384-1.272,1.664-3.672,3.842
			c-2.512,2.31-4.323,3.395-5.437,3.253c-0.791-0.101-1.157-0.367-1.103-0.799c0.043-0.335,0.41-0.995,1.101-1.978
			c3.957-5.145,6.612-9.7,7.965-13.668c1.616-4.906,2.862-10.811,3.74-17.711c0.231-1.82,0.431-3.767,0.601-5.839
			c-0.121-1.281-0.112-2.449,0.022-3.503C31.58,24.599,32.077,24.199,32.96,24.311z M41.476,70.825
			c0.146-0.03,0.317-0.081,0.515-0.153c3.808-0.636,6.573-1.793,8.296-3.473c1.652-1.495,3.231-3.899,4.738-7.212
			c0.241-0.408,0.459-0.819,0.652-1.231c-1.163,0.242-2.382,0.549-3.655,0.922c-0.604-0.076-0.935-1.189-0.99-3.34
			c0.036-0.287,0.242-0.431,0.621-0.432c1.424-0.063,3.083-0.313,4.978-0.755c0.251-0.114,0.449-0.186,0.595-0.217
			c0.544-1.684,0.956-3.432,1.233-5.247c0.098-0.767,0.309-1.13,0.634-1.089c0.789,0.101,1.762,0.614,2.918,1.54
			c0.622,0.664,0.897,1.283,0.824,1.858c-0.092,0.719-0.347,1.611-0.766,2.678c1.033,0.034,2.108,0.122,3.222,0.264
			c3.415,0.972,5.609,1.882,6.587,2.737c-0.216-0.904-0.536-1.723-0.962-2.46c-1.238-2.494-2.746-4.926-4.52-7.294
			c-1.69-0.069-3.661-0.149-5.913-0.242c-1.227-0.01-2.432,0.008-3.615,0.052c-1.38,2.308-2.816,4.342-4.314,6.098
			c-1.361,1.434-2.296,2.849-2.804,4.245c-0.794,1.798-2.33,2.552-4.604,2.263c-1.021-0.13-1.984-0.35-2.887-0.659
			C41.879,63.768,41.619,67.485,41.476,70.825z M60.507,58.054c-0.369,0.684-0.766,1.389-1.188,2.113
			c-1.592,2.865-3.266,5.281-5.026,7.25c2.603,1.791,4.415,2.752,5.436,2.882c0.464,0.06,1.089-0.592,1.875-1.952
			c0.675-1.229,1.279-2.637,1.812-4.225c0.455-1.354,0.766-2.679,0.93-3.972c0.152-1.197-0.305-1.865-1.372-2.001
			C62.183,58.049,61.361,58.017,60.507,58.054z"/>
	</g>
	<path style="fill:#FF0049;" d="M51.907,96.682c-0.765,0-1.53-0.02-2.299-0.059c-11.985-0.612-23.006-5.958-31.032-15.052
		c-8.01-9.075-12.078-20.8-11.453-33.015c0.625-12.215,5.867-23.464,14.761-31.675C30.796,8.654,42.315,4.467,54.29,5.073
		C79.006,6.338,98.065,27.9,96.775,53.14l0,0c-0.625,12.215-5.867,23.464-14.762,31.675C73.674,92.515,63.059,96.682,51.907,96.682z
		 M52,10.684c-9.725,0-18.986,3.638-26.27,10.363c-7.799,7.2-12.396,17.073-12.944,27.799c-0.549,10.727,3.018,21.017,10.041,28.975
		c7.008,7.939,16.623,12.606,27.071,13.141c10.451,0.531,20.489-3.128,28.271-10.311c7.799-7.2,12.396-17.073,12.944-27.799
		C92.243,30.733,75.595,11.84,54,10.736C53.332,10.701,52.664,10.684,52,10.684z"/>
</g>
</svg>
