<?xml version="1.0" encoding="utf-8"?>
<!-- Generator: Adobe Illustrator 21.0.0, SVG Export Plug-In . SVG Version: 6.00 Build 0)  -->
<svg version="1.1" id="圖層_1" xmlns="http://www.w3.org/2000/svg" xmlns:xlink="http://www.w3.org/1999/xlink" x="0px" y="0px"
	 viewBox="0 0 600.5 500.5" style="enable-background:new 0 0 600.5 500.5;" xml:space="preserve">
<style type="text/css">
	.st0{fill:#050505;}
</style>
<path class="st0" d="M471.1,109.5c-0.3-5.4-0.3-10.8-0.3-16.5c0-2.4,0-4.8-0.1-7.2c-0.1-5.1-2.9-9.8-7.3-12.2
	c-5.5-3-10.9-3.4-15.1-3.4c-0.6,0-1.2,0-1.9,0c-0.5,0-1,0-1.4,0h-0.1c-8.1,0-16.2,0-24.3,0c-7.3,0-14.7,0-22,0c-8.7,0-17.4,0-26.1,0
	c-16.8,0-30.5,0.1-43,0.2c-1.7-5.6-6.2-10.6-14.3-12c-4.5-0.8-9.1-1.2-13.7-1.2c-3.4,0-6.8,0.2-10.2,0.6c-0.2,0-0.5,0-0.7,0.1
	c-1.8,0.2-4.4,0.4-7.4,1.6c-4.8,2-8.4,5.9-10,10.8c-20.1-0.1-39.5-0.2-54.7-0.2c-9.6,0-19.1,0-28.7,0s-19.1,0-28.7,0H152
	c-2.3,0-7.1,0-11.7,2.6c-3.1,1.8-8.4,6-9.1,15.1c-0.3,3.6-0.1,6.9,0.1,9.9c0.1,2.3,0.3,4.5,0.1,6.2c-0.2,3-0.8,12,5.5,18.8
	c1.1,1.1,2.5,2.4,4.3,3.4c-1.4,4.3-1.1,8.4-0.9,10.1c0.3,3.6,0.3,7.5,0.3,11.6v0.6c0,0.5,0,1,0,1.5c-0.1,3.3-0.3,9.4,4.7,14.6
	c0.2,0.2,0.4,0.4,0.5,0.5c5,4.8,11.4,4.8,13.6,4.8h0.1c15.1,0,31.2-0.1,50.7-0.1c14.2,0,28.4,0,42.7,0c4.8,0,5.5,0,5.6,0
	c0,0,70.4,0,75.8,0v-14.1c-25.4,0-98.7,0-124.1,0c-16.9,0-33.8,0-50.7,0.1h-0.1c-5.5,0-4.6-2.1-4.5-7.1c0-4.5,0.1-9-0.3-13.5
	c-0.5-5.6,1-7.4,6.9-7.4h0.2c19.2,0.2,38.4,0.2,57.6,0.2c18.5,0,41.8,0,61.2-0.1c3.4,0,6.1-2.8,6.1-6.2l0,0c0-3.6-2.9-6.6-6.6-6.6
	h-3.2c-3.3,0-6.7,0-10,0c-13.2,0-26.5,0-39.7-0.1c-12.6,0-25.2-0.1-37.8-0.1h-2.8c-11.2,0-22.3,0-33.5,0.1h-0.1
	c-6.4,0-7.5-4.3-7.1-10c0.4-5.3-0.6-10.8-0.2-16c0.3-4.1,2.6-4.6,6.5-4.6l0,0c3,0,6.1,0,9.1,0c19.1,0,38.2,0,57.4,0
	c21.5,0,43,0,64.6,0.2h0.3c1.2,0,2.5-0.1,3.1-1.3c0.3-0.6,0.4-1.3,0.4-2c0-2-0.8-4.3-0.2-6.4c0.8-2.9,3.8-2.7,6.5-3.1
	c2.8-0.3,5.6-0.5,8.4-0.5c3.8,0,7.6,0.3,11.3,1c2.1,0.4,3.4,1.3,3.3,3.5c-0.1,1.4-0.4,2.8-0.5,4.1c-0.1,3,1.4,4.7,4.4,4.7h0.1
	c17.4-0.3,34.9-0.3,52.3-0.3c16,0,32.1,0.1,48.1,0.1c8.1,0,16.2,0,24.3,0h0.1c1.1,0,2.2,0,3.3,0c2.8,0,5.6,0.2,8.3,1.6
	c0.1,8.1,0,16.2,0.4,24.3c0.2,4-1.3,4.6-4.8,4.6h-0.1c-14.7-0.1-29.4-0.1-44-0.1c-12.3,0-24.5,0-36.8,0c-11.5,0-22.9,0.1-34.4,0.1
	c-3.7,0-8.2,0-12.4,0.1c-3.6,0-6.4,2.9-6.4,6.5l0,0c0,3.6,2.9,6.5,6.5,6.5c38.5,0,78.7-0.1,117-0.1l0,0c2.4,0,5.2,0.3,6.2,2.4
	c0.5,0.9,0.5,2,0.5,3.1c-0.1,6.7-0.1,13.4-0.2,20.1c0,0.5,0,0.9-0.2,1.4c-0.5,0.9-1.7,1-2.6,1c-42.6,0-60.1,0-102.7,0V170
	c24.9,0,24.7,0,49.6,0h53.1c5.9,0,9.7-2.3,12.1-4.5c1.4-1.4,2.4-2.8,2.9-3.7c2-3.6,2-6.8,2-8.1v-0.2l0.2-19.8c0-1.3,0-3.6-0.7-6.3
	c1.6-0.8,3.3-1.9,4.7-3.5C469.8,120,471.4,115.3,471.1,109.5z"/>
<path class="st0" d="M433.3,299.7c3.6,0,6.5-2.9,6.5-6.5c0-3,0-5.9,0-8.9c-0.1-6.3-0.1-12.7-0.3-19.2c-0.1-4.4-0.2-9.8-4.1-14.7
	c-5.3-6.7-13.4-6.7-16.8-6.7c-3.3,0-6.6,0-9.9,0h-5.1c-19.4,0-40.5,0-64.5,0c-22.4,0-44.9,0-67.3,0s-44.9,0-67.3,0
	c-12.1,0-23.7,4.7-32,12.8c-11.1,10.9-10.7,26-10.5,33.3c0.6,23.4,0.5,47.3,0.5,70.4c0,8.2,0,16.7,0,25.1c0,2.5,0.7,4.9,1.9,7.1
	c2.4,4.3,6.7,7.1,11.5,7.5c3.7,0.3,7.5,0.5,11.6,0.6c3,0.1,6.1,0.1,9.4,0.1c5.7,0,11.3-0.1,15.6-0.2c1.2,0,2.5-0.2,3.7-0.4
	c0.3-0.1,0.7-0.2,0.9-0.4c2.5-1.7,5-3.5,7.5-5.3c1.6-1.2,3.1-2.4,4.6-3.6c0.3-0.2,0.5-0.5,0.7-0.8c1.4-2.7,2.3-6,2.5-10
	c0.2-3.5,0.3-7.2,0.4-11c0.1-4.5,0.1-9.2,0.1-14.5c0-7.5-0.3-15.1-0.4-22.5c-0.2-8.5-0.4-17.2-0.4-25.8c0-3.9,0-8.7,1.2-11
	c1.5-2.8,6.1-3.5,15.2-3.9c13.1-0.6,26.3-0.9,38.8-1c6.6-0.1,13.1-0.1,19.1-0.1h1.7c1.7,0,3.4,0,5,0l0,0c2.3,0,4.5,0,6.8,0
	c0.9,0,1.9,0,2.9,0c7.8,0,15.7,0.1,23.5,0.2c2.6,0,5.2,0.1,7.7,0.1c3.2,0,6.5,0.1,9.7,0.2c0.2,0,0.5,0,0.7,0c1.4,0,2.4,1.1,2.4,2.5
	c0,23.2,0,46.5,0.1,69.2c0,2.4,0,4.8,0,7.2c0,2,0,4,0,6c0,2.6,0,5.2,0,7.8c0,1,0.6,1.9,1.5,2.3l0,0l0,0c0.6,0.3,1.3,0.6,1.9,0.9
	c5.1,2.4,10.1,5.1,14.8,8c2.9,1.8,5.7,3.6,8.4,5.6c0.4,0.3,0.9,0.5,1.4,0.5h1.5c3.2,0,6.4,0,9.6,0h15c6.8,0,11.1-2.9,13.5-5.4
	s5.2-6.8,5-13.6c0-0.1,0-0.2,0-0.4c-0.5-9.3-0.7-18.8-0.7-28.2c0-3.8-3.1-6.9-6.9-6.9l0,0c-4,0-7.3,3.3-7.3,7.3
	c0,9.5,0.2,19.1,0.7,28.5c0.1,3-1.3,4.5-4.3,4.5l0,0c-1.8,0-3.6,0-5.4,0c-5.7,0-11.4,0-17.1,0h-2.2c-2.5,0-4.9,0-7.4,0
	c-2.2,0-4.4,0-6.6,0c-0.8,0-1-0.6-1.4-1V382c0-2,0-4,0-6c-0.1-31.4-0.1-62.8-0.1-94.1c0-4.7-2.4-5.3-5.7-5.3c-1,0-2.1,0-3.2,0
	c-0.3,0-0.5,0-0.8,0c-5.7-0.1-11.4-0.3-17.1-0.3c-2.4,0-4.8-0.1-7.2-0.1c-8.3-0.1-16.6-0.2-24.9-0.2c-0.7,0-1.5,0-2.2,0
	c-2.1,0-4.2,0-6.3,0l0,0c-1.9,0-3.8,0-5.7,0h-2.5c-19.3,0-38.6,0.2-57.8,1.1c-10.1,0.5-21.4,1.2-26.9,11.3c-2.9,5.3-3,11.7-3,17.8
	c0,16.1,0.8,32.2,0.9,48.3c0.1,8.2,0,16.4-0.5,24.6c-0.1,0.9-0.1,1.7-0.3,2.5c-0.6,2.9-2.1,4.6-5.9,4.7c-0.2,0-0.4,0-0.5,0
	c-4.9,0.1-9.8,0.2-14.7,0.2c-6.6,0-13.3-0.2-19.9-0.7c-0.1,0-0.2-0.3-0.3-0.5c0-31.9,0.4-63.9-0.4-95.8c-0.2-8,0.2-16.9,6.3-22.9
	c5.8-5.7,13.9-8.7,22-8.7c44.9,0,89.7,0,134.6,0c21.5,0,43,0,64.5,0c5,0,10,0,15,0c6.5,0,6.7,1.2,6.8,7.5c0.1,6.3,0.2,12.7,0.3,19
	c0,2.5,0,5.1,0,7.6C425.7,296.2,429.1,299.7,433.3,299.7L433.3,299.7z"/>
<path class="st0" d="M363.8,290.6c-0.2-2.1-0.9-4.3-2.3-6.5c-4.1-6.6-11.2-7.7-14.4-8c-0.3,0-0.5,0-0.8-0.1c-2.5-0.2-5-0.3-8.3-0.3
	c-1.3,0-2.5,0-3.7,0H334l-11.8,0.1l-6.8,0.1l0,0c-0.4,0-1,0-1.6-0.1l0,0c-0.1,0-0.2,0-0.3,0c-1.2-0.1-2.7-0.2-4.4-0.2
	c-1.2,0-2.4,0.1-3.5,0.2c-5.5,0.6-10.1,2.8-13.5,6.4c-2.4,2.5-3.8,5.3-4.8,7.8c-0.4,1.1-0.8,2.2-1.1,3.1c-0.2,0.5-0.4,1.3-0.5,1.5
	c-1.6,3.6-2.9,6.5-4.1,9.2c-6.4,14-12.2,24-18.5,32.6c-5.6,7.6-12.3,14.6-18.6,21c-3.6,3.6-7.4,7.5-11.6,11.3
	c-4.6,4.3-9.6,8.6-14.9,12.7c-0.6,2.9-2.1,4.6-5.9,4.7c-0.2,0-0.4,0-0.5,0c-7.7,5.3-15.8,10-24.1,14.3c-9.6,4.9-19.3,9.3-28.8,13.5
	c-2.5,1.1-9,4-11.6,11c-1.5,4-1.3,8.3,0.6,12.1c2,4.1,6.5,9,16.7,9c1.8,0,3.6-0.1,4.8-0.2c0.3,0,0.6,0,0.9-0.1h11.2h11.3h5.6h10.2
	h0.2c7.8,0,13-1.7,19-4.5c20.1-9.3,39-21.2,56.4-35.3c17.3-14,32.8-29.9,46-47.5c9.2-12.1,17-24.6,23.2-37.1
	c3.2-6.4,5.8-12.9,8.3-19.2l0.2-0.4C362.7,299.5,364.4,295.3,363.8,290.6z M348.5,296.8c-2.5,6.3-5,12.5-8,18.6
	c-6.1,12.3-13.5,23.9-21.8,34.8c-12.6,16.7-27.4,31.8-43.7,45c-16.4,13.3-34.4,24.5-53.5,33.4c-4.7,2.2-7.8,3.2-13,3.2h-0.1
	c-5.3,0-10.6,0-15.8,0c-7.5,0-15.1-0.1-22.6-0.1l0,0c-1,0-3.4,0.3-5.6,0.3c-1.9,0-3.6-0.2-4-1c-0.9-1.8,2.8-3.4,3.9-4
	c18-7.9,36-16.3,52.3-27.1c2.7-1.8,5.3-3.6,7.9-5.6c1.7-1.3,3.4-2.6,5.1-3.9c8.8-7,16.9-14.9,24.9-22.9c7-7.1,13.9-14.4,19.9-22.5
	c8-10.8,14.3-22.8,20-35.1c1.4-3.1,2.8-6.3,4.2-9.4c1.1-2.4,1.9-6.5,3.8-8.4c1.1-1.2,2.5-1.7,4.1-2c0.9-0.2,1.8-0.2,2.7-0.2
	c1.4,0,2.7,0.1,4,0.2l0,0c0.8,0,1.5,0.1,2.2,0.1h0.2c2.4,0,4.8,0,7.3-0.1c3.8,0,7.5-0.1,11.3-0.1c1.3,0,2.6,0,3.9,0
	c2.4,0,4.8,0.1,7.3,0.2c0.4,0,0.7,0.1,1.1,0.1C350.7,290.9,350.2,292.6,348.5,296.8z"/>
<path class="st0" d="M429.4,412.9c-3.9-4.3-8.1-8.5-12.5-12.4c-2.3-2.1-4.7-4.1-7.1-6c-3.6-2.9-7.3-5.6-11.1-8.2h-2.2
	c-2.5,0-4.9,0-7.4,0c-2.2,0-4.4,0-6.6,0c-0.8,0-1-0.6-1.4-1V382c0-2,0-4,0-6c-1.6-0.8-3.1-1.6-4.8-2.3c-3-1.4-6.2-2.8-9.4-4.1l0,0
	c-7.2-2.9-15-5.5-24-8.1c-3.7-1.1-8.7-2.3-14.1-2.3c-10.1,0-18.7,4.6-24.2,12.9l-1.8,2.7l-1.8,2.7c-4.1,6.3-2.6,14.8,3.6,19.3
	c5.4,3.9,11.3,5.3,16.1,6.5c2,0.5,4,1,5.2,1.5c2.7,1.1,5.3,2.4,7.7,3.9c1.9,1.2,3.8,2.5,5.5,3.9c5.1,4.1,9.6,9.3,14.5,14.7
	c1.8,2,3.6,4.1,5.5,6.1c4.8,5.2,10,10.1,20,11.4c1.9,0.2,3.8,0.4,6,0.4c2.1,0,4.1-0.1,6-0.2c1.3-0.1,2.4-0.1,3.5-0.2l23.1-0.5
	c7.4-0.2,13.4-4,16.1-10.2C436.8,427.3,435.1,419.2,429.4,412.9z M417.5,430c-7.7,0.2-15.4,0.4-23.1,0.5c-3.1,0.1-6.1,0.4-9.2,0.4
	c-1.4,0-2.8-0.1-4.2-0.2c-5.4-0.7-7.8-3-11.3-6.9c-7-7.6-13.4-15.8-21.5-22.3c-2.2-1.8-4.6-3.4-7-4.9c-3.1-1.9-6.4-3.6-9.7-5
	c-5.8-2.4-13.3-2.6-18.4-6.3c1.2-1.8,2.4-3.6,3.6-5.4c3.2-4.9,7.6-6.5,12.3-6.5c3.3,0,6.8,0.8,10.2,1.8c9.5,2.7,18.9,5.9,27.9,9.8
	c0.5,0.2,1,0.5,1.5,0.7l0,0c0.6,0.3,1.3,0.6,1.9,0.9c5.1,2.4,10.1,5.1,14.8,8c3.1,1.9,6.1,3.9,9.1,6c8.9,6.4,17.2,13.7,24.5,21.9
	C421.5,425.3,422.7,429.9,417.5,430z"/>
<path class="st0" d="M238.2,197.3c4.5,0,6,1.4,6,6.2c-0.1,14.6,0.1,14.6-14.2,14.6c-14.4,0-28.7,0-43.1,0c0-6.9,0-13.8,0-20.7
	c9.5,0,19,0,28.5,0c7.5,0,15,0,22.5-0.1C238,197.3,238.1,197.3,238.2,197.3 M238.2,183.1c-0.2,0-0.3,0-0.5,0
	c-6.5,0.1-13.6,0.1-22.3,0.1c-4.8,0-9.6,0-14.5,0c-4.7,0-9.3,0-14,0l0,0c-3.8,0-7.4,1.5-10,4.2c-2.7,2.7-4.2,6.3-4.2,10v3.5v17.3
	c0,3.8,1.5,7.4,4.2,10c2.7,2.7,6.3,4.2,10,4.2l0,0h12.7H230c9.2,0,16.4,0,22.3-5.8c6-5.9,6-13.1,6-22.3v-0.6c0-2.3,0-9.4-5.5-14.9
	C247.5,183.1,240.5,183.1,238.2,183.1L238.2,183.1z"/>
<path class="st0" d="M277.4,197.3c1.8,0,4.3,0.1,7.7,0.1c0.7,0,1.5,0,2.3,0c3.3-0.1,6.7-0.1,10-0.1c5.1,0,10.1,0,15.2,0
	c3.1,0,6.3,0,9.4-0.1c0.1,0,0.2,0,0.3,0c4,0,5.3,1.4,5.3,5.6c0.2,15.2,0.4,15.2-14.8,15.2c-4.4,0-8.9,0-13.3,0c-4.3,0-8.5,0-12.8,0
	c-3,0-6,0-9,0.1c-0.1,0-0.2,0-0.3,0c-3.4,0-4.8-1.4-4.7-4.9C273,199,271.5,197.3,277.4,197.3 M277.4,183.2c-2.4,0-8.8,0-13.8,5
	c-5.2,5.2-5.1,11.3-5.1,17.8c0,2,0,4.2,0,7c-0.2,7.2,2.7,11.6,5.1,14.1c2.4,2.4,6.7,5.4,13.8,5.4c0.2,0,0.4,0,0.6,0
	c2.5-0.1,5.3-0.1,8.7-0.1c2.2,0,4.3,0,6.5,0c2.1,0,4.2,0,6.3,0c4.4,0,8.9,0,13.3,0c9.6,0,17.2,0,23.2-6.1s5.9-13.6,5.7-23.1v-0.4
	c-0.2-11.9-7.8-19.5-19.5-19.5c-0.2,0-0.4,0-0.6,0c-2.7,0-5.6,0.1-9.1,0.1c-2.5,0-5,0-7.5,0c-2.6,0-5.1,0-7.7,0
	c-3.9,0-7.2,0-10.3,0.1c-0.7,0-1.4,0-2,0c-1.8,0-3.3,0-4.7-0.1C279.4,183.2,278.4,183.2,277.4,183.2L277.4,183.2z"/>
<path class="st0" d="M362.2,197.3c0.1,0,0.2,0,0.3,0c7.5,0.1,15,0.1,22.5,0.1c9.5,0,19,0,28.5,0c0,6.9,0,13.8,0,20.7
	c-14.4,0-28.7,0-43.1,0c-14.3,0-14.1,0-14.2-14.6C356.2,198.8,357.7,197.3,362.2,197.3 M413.5,197.4L413.5,197.4 M362.2,183.2
	c-2.3,0-9.3,0-14.7,5.5c-5.5,5.5-5.5,12.6-5.5,15v0.6c0,9.2,0.1,16.4,6,22.3c5.9,5.8,13.2,5.8,22.3,5.8h30.4h12.7l0,0
	c3.8,0,7.4-1.5,10-4.2c2.7-2.7,4.2-6.3,4.2-10v-17.3v-3.2c0-0.1,0-0.2,0-0.3c0-7.8-6.3-14.2-14.2-14.2l0,0l0,0l0,0
	c-4.7,0-9.3,0-14,0c-4.8,0-9.6,0-14.5,0c-8.7,0-15.8,0-22.3-0.1C362.6,183.2,362.4,183.2,362.2,183.2L362.2,183.2L362.2,183.2
	L362.2,183.2z"/>
<path class="st0" d="M459.9,176.5c0-4.4-0.9-8.3-2.7-11.5c-1.8-3.3-4.5-5.9-8.1-7.9c-0.3-0.2-0.7-0.3-1-0.4c-3-0.9-5.7-1-7.5-1
	c-0.3,0-0.7,0-1,0h-112c-0.1,0-0.3,0.1-0.3,0.3v13.6c0,0.1,0.1,0.3,0.3,0.3c40.4,0,70.9,0,111.3,0c0.6,0,1.1,0,1.7,0
	c0.9,0,1.7,0,2.6,0.2c2.3,1.5,2.6,3.9,2.6,6.4c0,20.7,0,41.3,0,62c0,1.8,0.2,3.7-1.6,4.9c-1.8,0.1-3.6,0.3-5.5,0.3
	c-47.6,0-95.2,0-142.8,0c-44.1,0-88.3,0-132.4,0c-1.6,0-3.2-0.2-4.8-0.3c-1.6-1.5-0.8-3.4-0.8-5.2c0-20.5,0-41.1,0-61.6
	c0-2.4-0.6-4.9,1.9-6.6c0.8-0.2,1.7-0.3,2.6-0.3c0.6,0,1.1,0,1.7,0c41.1,0,133.4,0,163.7,0v-14c-30.9,0-122.6,0-163.7,0
	c-0.2,0-0.4,0-0.6,0c-0.3,0-0.7,0-1.1,0c-1.4,0-3.7,0.1-6.1,0.7c-1.6,0.4-3,1.1-4.3,2c-2.9,1.9-4.8,4.2-6,6.5
	c-2.5,4.6-2.3,9.3-2.2,11.3c0,0.2,0,0.4,0,0.6c0,18.5,0,40,0,61.4c0,0,0,0.1,0,0.2c-0.2,2.4-0.9,9.5,5.2,15.4c2.5,2.4,5.7,3.8,9.1,4
	c0.4,0,0.9,0.1,1.3,0.1c1.3,0.1,2.7,0.2,4.3,0.2c44.1,0,88.3,0,132.4,0c47.6,0,95.2,0,142.8,0c1.8,0,3.4-0.1,4.8-0.2
	c0.8-0.1,1.5-0.1,2.3-0.1c1.3,0,2.5-0.3,3.6-0.9c7-3.4,10.6-9.4,10.5-17.8v-0.4c0-13.9,0-28.1,0-41.8v-20.4H459.9z"/>
<g>
	<g>
		<path d="M438.7,315.9c-1.9-1.9-4.4-2.9-7.1-2.9s-5.2,1.1-7.1,2.9c-1.9,1.9-2.9,4.4-2.9,7.1c0,2.6,1.1,5.2,2.9,7.1
			c1.9,1.9,4.4,2.9,7.1,2.9s5.2-1.1,7.1-2.9c1.9-1.9,2.9-4.4,2.9-7.1C441.7,320.4,440.6,317.8,438.7,315.9z"/>
	</g>
</g>
</svg>
