<?xml version="1.0" encoding="iso-8859-1"?>
<!-- Generator: Adobe Illustrator 25.0.0, SVG Export Plug-In . SVG Version: 6.00 Build 0)  -->
<svg version="1.1" id="&#x5716;&#x5C64;_1" xmlns="http://www.w3.org/2000/svg" xmlns:xlink="http://www.w3.org/1999/xlink" x="0px"
	 y="0px" viewBox="0 0 600.5 500.5" style="enable-background:new 0 0 600.5 500.5;" xml:space="preserve">
<g>
	<path d="M54.79,232.163c4.371,2.726,8.571,4.249,12.844,4.655c0.824,0.078,1.639,0.117,2.449,0.117
		c6.148,0,11.883-2.244,17.076-6.689c4.69-4.016,8.381-9.16,11.966-16.678c2.93-6.137,4.89-12.938,5.827-20.216
		c0.603-4.714,1.008-10.287-0.56-15.887c-1.374-4.904-4.203-8.548-8.403-10.828c-1.923-1.047-3.904-1.645-5.651-2.171
		c-0.499-0.15-0.999-0.301-1.493-0.461c-1.695-0.551-3.092-1.141-4.273-1.806c-0.824-0.463-1.622-1.266-1.882-3.982
		c-0.236-2.458,0.061-5.097,0.964-8.56c2.673-10.287,6.983-20.409,13.177-30.95c3.579-6.101,7.612-12.063,11.987-17.721
		c4.807-6.209,9.421-11.226,14.104-15.334c2.196-1.922,4.867-4.044,8.023-5.208c3.14-1.159,4.724-0.251,5.852,0.784
		c1.273,1.174,2.458,2.516,3.712,3.936l0.311,0.352c5.053,5.706,11.529,7.804,18.725,6.062c3.086-0.749,6.129-2.036,9.047-3.827
		c9.138-5.614,16.258-11.987,21.766-19.48c3.671-4.984,6.135-9.791,7.531-14.693c3.203-11.218-0.327-21.665-9.686-28.663
		c-4.424-3.307-9.656-5.797-15.995-7.611c-10.274-2.945-20.822-2.741-32.246,0.627c-9.707,2.858-19.096,7.607-29.548,14.947
		c-13.523,9.498-25.65,21.368-37.075,36.29c-3.132,4.093-6.041,8.229-8.854,12.229c-1.188,1.689-2.345,3.335-3.472,4.908
		l-0.206,0.319c-1.029,1.769-2.021,3.464-2.984,5.11c-2.139,3.654-4.159,7.105-6.116,10.582
		c-4.651,8.259-8.795,17.103-12.319,26.286c-4.109,10.713-6.914,20.922-8.572,31.211c-1.938,12.023-2.259,22.073-1.007,31.627
		c1.028,7.847,3.102,14.659,6.338,20.82C40.42,220.406,46.692,227.103,54.79,232.163z M37.741,190.396
		c-1.148-8.764-0.839-18.079,0.973-29.315c1.57-9.738,4.233-19.427,8.143-29.62c3.384-8.819,7.36-17.306,11.821-25.227
		c1.924-3.418,3.927-6.841,6.049-10.465c0.938-1.602,1.902-3.25,2.901-4.967c1.104-1.544,2.238-3.156,3.401-4.809
		c2.768-3.935,5.629-8.004,8.663-11.968c10.92-14.264,22.473-25.583,35.319-34.605c9.718-6.824,18.364-11.215,27.211-13.82
		c9.926-2.925,19.013-3.125,27.783-0.61c5.39,1.542,9.775,3.613,13.407,6.328c6.745,5.043,9.09,11.979,6.783,20.062
		c-1.13,3.969-3.185,7.941-6.282,12.146c-4.887,6.649-11.268,12.342-19.508,17.405c-2.204,1.353-4.474,2.318-6.744,2.869
		c-4.313,1.041-7.76-0.099-10.85-3.588l-0.304-0.345c-1.333-1.51-2.711-3.071-4.293-4.53c-2.688-2.466-7.306-4.883-14.036-2.401
		c-4.404,1.624-7.938,4.431-10.527,6.697c-5.076,4.452-10.034,9.834-15.159,16.456c-4.583,5.928-8.81,12.175-12.558,18.566
		c-6.572,11.185-11.159,21.975-14.021,32.985c-0.713,2.737-1.612,6.89-1.185,11.338c0.171,1.794,0.693,7.253,5.923,10.192
		c1.646,0.927,3.519,1.726,5.726,2.443c0.549,0.178,1.101,0.345,1.652,0.511c1.511,0.456,2.938,0.886,4.14,1.541
		c2.294,1.246,3.731,3.139,4.521,5.957c1.179,4.211,0.854,8.599,0.329,12.711c-0.828,6.432-2.547,12.417-5.112,17.789
		c-3.081,6.461-6.149,10.793-9.949,14.046c-4.225,3.616-8.664,5.15-13.567,4.686c-3.049-0.29-6.025-1.395-9.362-3.477
		c-6.875-4.295-12.189-9.959-15.796-16.837C40.439,203.225,38.644,197.291,37.741,190.396z"/>
	<path d="M180.691,123.258c-22.751,6.197-39.004,26.622-40.069,50.043l-28.173,24.958l36.939,7.223
		c10.154,15.593,27.595,24.708,45.735,24.707c4.715,0,9.482-0.617,14.176-1.895c14.028-3.821,25.729-12.875,32.946-25.497
		s9.088-27.297,5.268-41.325s-12.875-25.729-25.497-32.946S194.72,119.438,180.691,123.258z M218.045,135.471
		c10.766,6.157,18.49,16.138,21.75,28.104c3.259,11.966,1.664,24.485-4.494,35.251c-6.157,10.766-16.138,18.49-28.104,21.75
		c-19.903,5.42-41.252-3.114-51.919-20.756l-0.917-1.516l-24.491-4.79l18.679-16.547l0.021-1.771
		c0.248-20.614,14.321-38.797,34.224-44.218C194.76,127.719,207.279,129.313,218.045,135.471z"/>
	<path d="M331.419,302.475c4.665-22.976-6.132-46.741-26.692-58.286c-26.169-14.693-59.416-5.355-74.11,20.813
		c-7.118,12.677-8.873,27.367-4.942,41.364c3.931,13.998,13.078,25.627,25.755,32.745c8.292,4.655,17.454,6.921,26.563,6.921
		c13.478-0.001,26.842-4.961,37.099-14.476l37.586,1.979L331.419,302.475z M312.014,323.384l-1.258,1.248
		c-14.638,14.517-37.424,17.603-55.41,7.503c-10.814-6.071-18.616-15.991-21.97-27.932c-3.353-11.939-1.856-24.471,4.216-35.285
		c8.509-15.153,24.309-23.691,40.564-23.691c7.691,0,15.483,1.912,22.654,5.937c17.985,10.1,27.213,31.16,22.438,51.215l-0.41,1.724
		l14.094,20.593L312.014,323.384z"/>
	<path d="M174.277,162.074c0,2.25,1.097,3.374,3.293,3.374c2.249,0,3.374-1.125,3.374-3.374c0-3.426,1.338-6.266,4.017-8.515
		c2.57-2.141,6.051-3.213,10.443-3.213c4.659,0,8.246,1.044,10.764,3.133c2.302,1.982,3.48,4.472,3.535,7.471
		c0,6.159-2.49,10.872-7.471,14.138c-6.48,4.231-9.72,10.417-9.72,18.557c0,2.249,1.097,3.374,3.294,3.374
		c2.249,0,3.374-1.125,3.374-3.374c0-6.748,2.784-11.942,8.354-15.584c5.837-3.856,8.783-9.559,8.837-17.11
		c0-4.82-1.58-8.595-4.739-11.327c-4.231-3.587-9.64-5.408-16.227-5.463c-5.998,0-11.033,1.554-15.102,4.659
		C176.285,152.033,174.277,156.451,174.277,162.074z"/>
	<path d="M195.404,201.437c-1.821,0-3.321,0.59-4.499,1.767c-1.125,1.125-1.687,2.598-1.687,4.418c0,1.821,0.589,3.321,1.767,4.499
		c1.125,1.177,2.597,1.768,4.418,1.768c1.767,0,3.239-0.59,4.418-1.768c1.177-1.177,1.794-2.677,1.848-4.499
		c0-1.767-0.562-3.213-1.687-4.338C198.698,202.107,197.171,201.491,195.404,201.437z"/>
	<path d="M569.714,343.702c-2.247-3.118-5.573-5.174-9.366-5.789l-12.263-1.992c-2.369-53.026-44.365-95.403-95.653-95.403
		c-51.299,0-93.301,42.395-95.654,95.437l-12.057,1.958c-3.793,0.615-7.12,2.672-9.367,5.789c-2.246,3.118-3.145,6.924-2.528,10.718
		l8.479,52.219c1.146,7.053,7.267,12.082,14.193,12.082c0.763,0,1.537-0.062,2.314-0.188l20.444-3.319h0.001
		c7.83-1.271,13.166-8.677,11.895-16.508l-8.479-52.218c-0.616-3.793-2.673-7.12-5.79-9.366c-2.805-2.021-6.167-2.94-9.575-2.658
		c3.037-47.136,40.502-84.513,86.124-84.513c45.615,0,83.075,37.364,86.123,84.489c-3.336-0.228-6.621,0.701-9.369,2.681
		c-3.117,2.246-5.174,5.573-5.79,9.366l-8.479,52.219c-1.271,7.83,4.066,15.235,11.896,16.507l2.599,0.422
		c-7.73,11.546-24.297,31.188-52.323,41.201c-2.299-4.287-6.767-7.026-11.78-7.026h-15.635c-7.379,0-13.382,6.004-13.382,13.383
		s6.003,13.382,13.382,13.382h15.635c6.68,0,12.271-4.977,13.23-11.417c33.528-11.488,52.13-35.641,59.828-48.068l8.89,1.443
		c0.781,0.127,1.562,0.189,2.337,0.189c2.993,0,5.904-0.934,8.381-2.718c3.117-2.247,5.174-5.574,5.789-9.366l8.479-52.219
		C572.859,350.626,571.961,346.82,569.714,343.702z M367.48,344.406c0.913,0,1.801,0.284,2.556,0.828
		c0.951,0.686,1.578,1.7,1.766,2.857l8.479,52.218c0.388,2.388-1.239,4.646-3.627,5.033l-20.445,3.319
		c-2.391,0.396-4.646-1.239-5.033-3.627l-8.479-52.219c-0.188-1.156,0.086-2.317,0.771-3.268c0.686-0.95,1.699-1.577,2.856-1.765
		l20.445-3.32C367.006,344.425,367.244,344.406,367.48,344.406z M449.673,458.182h15.635c2.763,0,5.011,2.248,5.011,5.012
		c0,2.763-2.248,5.011-5.011,5.011h-15.635c-2.764,0-5.012-2.248-5.012-5.011C444.661,460.43,446.909,458.182,449.673,458.182z
		 M562.372,352.816l-8.479,52.22c-0.188,1.156-0.814,2.17-1.765,2.855c-0.95,0.685-2.109,0.96-3.269,0.771l-20.444-3.319
		c-2.388-0.388-4.016-2.646-3.628-5.033l8.479-52.218c0.188-1.157,0.814-2.172,1.766-2.857c0.95-0.685,2.113-0.961,3.268-0.771
		l20.445,3.32c1.157,0.188,2.171,0.814,2.856,1.765C562.286,350.5,562.561,351.66,562.372,352.816z"/>
	<path d="M304.043,266.681c-2.266-1.578-5.382-1.023-6.96,1.245l-28.369,40.734l-15.187-12.655c-2.121-1.77-5.274-1.481-7.042,0.64
		c-1.768,2.122-1.481,5.274,0.641,7.042l19.375,16.146c0.904,0.754,2.038,1.159,3.201,1.159c0.222,0,0.445-0.015,0.667-0.045
		c1.388-0.187,2.635-0.948,3.436-2.098l31.484-45.208C306.867,271.375,306.309,268.259,304.043,266.681z"/>
	<path d="M264.82,51.821c0.016,0,0.033,0,0.048,0c0.441,0,44.008-0.178,89.083,19.828c55.894,24.807,89.361,68.166,99.65,128.984
		l-51.021-45.213c-2.067-1.831-5.227-1.641-7.059,0.426c-1.831,2.066-1.641,5.227,0.426,7.058l61.164,54.2
		c0.065,0.057,0.14,0.099,0.207,0.152c0.167,0.134,0.334,0.269,0.518,0.38c0.097,0.059,0.203,0.098,0.303,0.15
		c0.168,0.087,0.332,0.179,0.51,0.247c0.104,0.04,0.214,0.059,0.321,0.092c0.182,0.056,0.361,0.118,0.551,0.153
		c0.174,0.032,0.353,0.036,0.53,0.049c0.124,0.009,0.245,0.035,0.371,0.035c0.183,0,0.367-0.01,0.554-0.031
		c0.079-0.009,0.151-0.036,0.229-0.049c0.077-0.012,0.154-0.008,0.23-0.023c0.161-0.033,0.318-0.078,0.474-0.127
		c0.025-0.008,0.051-0.012,0.076-0.02c0.273-0.089,0.533-0.208,0.784-0.341c0.055-0.029,0.11-0.057,0.164-0.088
		c0.238-0.138,0.463-0.294,0.675-0.469c0.043-0.035,0.082-0.073,0.124-0.109c0.213-0.188,0.414-0.388,0.593-0.61
		c0.002-0.003,0.005-0.005,0.007-0.008c0.178-0.222,0.331-0.465,0.47-0.717c0.028-0.05,0.056-0.099,0.082-0.15
		c0.022-0.043,0.048-0.083,0.069-0.127l31.739-67.361c1.177-2.498,0.105-5.478-2.393-6.654c-2.495-1.177-5.478-0.107-6.654,2.392
		l-24.684,52.388c-5.908-32.291-18.323-60.205-37.053-83.128c-17.497-21.412-40.45-38.492-68.222-50.764
		c-47.034-20.783-91.08-20.572-92.92-20.543c-2.76,0.029-4.973,2.289-4.946,5.049C259.848,49.615,262.082,51.821,264.82,51.821z"/>
	<path d="M272.294,448.354c-0.018,0-0.036,0-0.054,0c-0.434,0.002-43.702,0.226-88.772-19.69
		c-56.079-24.78-89.651-68.186-99.958-129.12l51.022,45.213c2.067,1.833,5.227,1.639,7.058-0.426
		c1.832-2.067,1.641-5.228-0.426-7.059L80,283.071c-0.043-0.038-0.089-0.069-0.133-0.105c-0.045-0.037-0.09-0.072-0.136-0.107
		c-0.226-0.174-0.462-0.334-0.711-0.466c-0.018-0.009-0.037-0.016-0.055-0.025c-0.246-0.126-0.502-0.228-0.764-0.312
		c-0.046-0.015-0.091-0.032-0.138-0.046c-0.274-0.079-0.554-0.131-0.838-0.162c-0.053-0.006-0.105-0.01-0.158-0.014
		c-0.297-0.023-0.596-0.023-0.895,0.009c-0.012,0.001-0.023-0.001-0.036,0c-0.025,0.003-0.048,0.013-0.073,0.016
		c-0.129,0.016-0.257,0.03-0.385,0.057c-0.163,0.033-0.321,0.079-0.477,0.128c-0.024,0.007-0.048,0.012-0.072,0.019
		c-0.275,0.09-0.535,0.209-0.787,0.343c-0.054,0.029-0.107,0.055-0.159,0.086c-0.239,0.138-0.466,0.295-0.678,0.471
		c-0.042,0.035-0.081,0.071-0.121,0.107c-0.212,0.187-0.414,0.388-0.592,0.609c-0.003,0.003-0.006,0.006-0.009,0.01
		c-0.176,0.22-0.328,0.461-0.466,0.711c-0.03,0.054-0.06,0.106-0.087,0.16c-0.021,0.041-0.047,0.08-0.066,0.122l-31.739,67.361
		c-1.177,2.498-0.106,5.477,2.392,6.654c0.689,0.324,1.414,0.478,2.128,0.478c1.876,0,3.674-1.061,4.526-2.87l24.684-52.387
		c5.908,32.291,18.322,60.205,37.053,83.128c17.496,21.413,40.449,38.492,68.222,50.764c45.095,19.927,87.434,20.546,92.478,20.546
		c0.217,0,0.366-0.001,0.442-0.002c2.761-0.029,4.976-2.291,4.947-5.053C277.264,450.558,275.031,448.354,272.294,448.354z"/>
</g>
</svg>
