<?xml version="1.0" encoding="iso-8859-1"?>
<!-- Generator: Adobe Illustrator 25.0.0, SVG Export Plug-In . SVG Version: 6.00 Build 0)  -->
<svg version="1.1" id="&#x5716;&#x5C64;_3_&#x62F7;&#x8C9D;_3"
	 xmlns="http://www.w3.org/2000/svg" xmlns:xlink="http://www.w3.org/1999/xlink" x="0px" y="0px" viewBox="0 0 600.5 500.5"
	 style="enable-background:new 0 0 600.5 500.5;" xml:space="preserve">
<path d="M582.888,204.544c-0.577-1.134-1.562-1.976-2.771-2.369c-1.207-0.395-2.502-0.293-3.637,0.285l-39.521,20.126
	c-1.181,0.601-2.064,1.677-2.425,2.953c-6.997,24.802-27.671,34.78-27.884,34.88l-97.446,49.626c-1.3,0.661-2.703,1.039-4.141,1.123
	c0.205-0.148,0.407-0.319,0.612-0.518c0.049-0.047,0.094-0.096,0.199-0.21c0.155-0.168,0.3-0.343,0.434-0.527
	c0.063-0.087,0.125-0.174,0.183-0.265c0.128-0.199,0.239-0.409,0.377-0.697c0.028-0.055,0.056-0.109,0.104-0.218
	c0.107-0.267,0.192-0.55,0.26-0.861c0.014-0.06,0.022-0.118,0.04-0.246c0.043-0.254,0.07-0.512,0.08-0.786l0.012-19.542
	l37.831-19.268c1.135-0.577,1.977-1.563,2.37-2.772c0.394-1.211,0.292-2.502-0.286-3.636c-1.191-2.341-4.068-3.277-6.408-2.084
	l-33.507,17.064v-23.156l24.142-12.295c1.135-0.578,1.977-1.563,2.37-2.773s0.292-2.502-0.286-3.636
	c-0.577-1.135-1.562-1.977-2.771-2.371c-1.213-0.394-2.503-0.292-3.637,0.286l-19.817,10.092v-27.916L439.83,198.3
	c1.135-0.578,1.977-1.563,2.37-2.773c0.345-1.062,0.31-2.186-0.095-3.211c5.807,0.07,11.429-1.332,16.765-4.05
	c1.135-0.578,1.977-1.563,2.37-2.773s0.292-2.502-0.286-3.636c-0.577-1.134-1.562-1.976-2.771-2.37
	c-1.213-0.395-2.504-0.291-3.637,0.286c-15.819,8.056-30.744-2.413-34.942-5.813c-0.665-0.538-1.073-0.908-1.168-0.994
	c-1.458-1.364-3.636-1.67-5.413-0.763l-25.768,13.123c-2.749,0.126-5.409-0.088-7.913-0.639c-1.492-0.328-2.962-0.785-4.367-1.358
	c-2.861-1.167-5.472-2.818-7.759-4.906c-3.217-2.936-4.783-5.787-5.372-7.049l74.617-38.001
	c11.584,5.147,49.367,20.724,65.092,12.714l36.697-18.69c1.135-0.577,1.976-1.562,2.369-2.772s0.292-2.501-0.286-3.635
	c-0.577-1.135-1.562-1.977-2.771-2.371c-1.211-0.394-2.504-0.292-3.637,0.287l-36.696,18.688
	c-10.01,5.095-41.435-5.781-58.896-13.833c-1.333-0.616-2.85-0.585-4.158,0.081l-79.527,40.501c-1.257,0.641-4.021,2.708-2.53,8.05
	c0.502,1.8,1.455,3.868,2.713,5.899H247.66c2.343-2.78,3.936-5.474,4.418-7.496c0.798-3.346-0.95-5.568-2.69-6.455l-79.527-40.5
	c-1.31-0.668-2.826-0.696-4.159-0.081c-17.46,8.052-48.889,18.928-58.895,13.833L70.11,118.904c-1.134-0.578-2.426-0.68-3.636-0.286
	s-2.195,1.235-2.772,2.37c-0.578,1.134-0.68,2.426-0.286,3.636c0.394,1.21,1.235,2.195,2.37,2.772l36.697,18.689
	c15.727,8.009,53.508-7.568,65.092-12.714l73.779,37.573c-1.063,1.404-3.67,4.521-7.734,7.346h-17.318
	c-0.308,0-0.624,0.031-0.993,0.099c-0.086,0.016-0.171,0.037-0.302,0.069c-0.227,0.055-0.446,0.123-0.717,0.226
	c-0.079,0.029-0.157,0.06-0.233,0.093c-0.123,0.055-0.242,0.115-0.359,0.18l-31.479-16.032c-1.134-0.578-2.426-0.679-3.637-0.285
	s-2.195,1.235-2.772,2.369c-0.444,0.872-0.605,1.851-0.466,2.83c0.22,1.54,1.173,2.877,2.549,3.579l93.238,47.485
	c5.069,2.581,7.092,8.805,4.512,13.874c-0.034,0.066-0.072,0.129-0.11,0.193l-0.094,0.161c-0.802,1.433-1.887,2.615-3.224,3.513
	c-1.508,1.014-3.273,1.613-5.104,1.734c-1.858,0.122-3.706-0.254-5.349-1.09l-93.234-47.482c-1.134-0.578-2.425-0.679-3.636-0.286
	c-1.21,0.394-2.195,1.235-2.772,2.37c-0.578,1.134-0.68,2.426-0.286,3.636s1.235,2.195,2.37,2.772l106.888,54.436
	c1.928,0.982,3.573,2.462,4.757,4.278c0.615,0.942,1.095,1.938,1.427,2.959c1.027,3.16,0.763,6.53-0.745,9.491
	c-1.508,2.961-4.079,5.156-7.237,6.184c-3.162,1.027-6.533,0.762-9.491-0.745l-82.948-42.243c-1.134-0.578-2.424-0.679-3.636-0.286
	c-1.21,0.394-2.195,1.235-2.773,2.369c-0.578,1.134-0.679,2.426-0.286,3.636s1.235,2.195,2.369,2.772l70.979,36.147
	c2.281,1.162,4.04,3.128,4.951,5.536l0.069,0.176c0.039,0.097,0.077,0.192,0.109,0.292c0.853,2.62,0.633,5.416-0.618,7.872
	c-1.251,2.455-3.383,4.276-6.004,5.129c-2.412,0.784-5.024,0.647-7.355-0.386l-0.162-0.07c-0.119-0.052-0.239-0.103-0.354-0.161
	l-70.979-36.148c-1.134-0.578-2.425-0.682-3.637-0.286c-1.21,0.394-2.194,1.235-2.772,2.37c-0.578,1.134-0.68,2.425-0.286,3.636
	c0.394,1.21,1.235,2.195,2.37,2.772l45.586,23.218c2.503,1.28,4.36,3.458,5.229,6.131c0.872,2.681,0.647,5.54-0.633,8.052
	c-1.278,2.511-3.458,4.374-6.14,5.246c-2.676,0.873-5.537,0.647-8.052-0.632l-97.292-49.548l-0.163-0.08
	c-0.208-0.096-20.829-9.896-27.877-34.877c-0.36-1.275-1.243-2.352-2.424-2.952l-39.52-20.126c-1.134-0.578-2.425-0.679-3.636-0.286
	c-1.21,0.394-2.195,1.235-2.772,2.37c-0.578,1.134-0.679,2.426-0.286,3.636s1.235,2.195,2.369,2.772l37.702,19.201
	c8.493,26.919,29.934,37.727,32.343,38.866l97.23,49.517c2.863,1.458,5.92,2.197,9.088,2.197c0.002,0,0.004,0,0.006,0
	c2.105,0,4.201-0.334,6.23-0.993c4.171-1.357,7.693-3.967,10.205-7.556c0.087,0.007,0.176,0.012,0.265,0.012h171.695
	c3.757,5.345,9.886,8.526,16.451,8.526c3.179,0,6.234-0.735,9.081-2.186l97.218-49.511c2.423-1.147,23.867-11.964,32.356-38.873
	l37.701-19.2c1.135-0.578,1.977-1.563,2.37-2.773S583.466,205.678,582.888,204.544z M407.363,204.139V185.78l7.199-3.667
	c3.402,2.6,9.99,6.93,18.356,9.011L407.363,204.139z M396.363,196.583v97.321l-51.333-48.661L396.363,196.583z M258.601,284.697
	c4.439,1.47,9.137,1.476,13.641,0.014c5.581-1.814,10.121-5.694,12.783-10.924c2.5-4.908,3.065-10.455,1.624-15.732l18.651,17.68
	c1.025,0.973,2.369,1.508,3.783,1.508s2.758-0.535,3.783-1.508l24.171-22.913l51.031,48.375H252.143
	c1.802-1.624,3.269-3.535,4.37-5.698C258.229,292.13,258.945,288.412,258.601,284.697z M284.137,237.104
	c0.259-0.51,0.507-1.065,0.758-1.696c3.802-9.575-0.255-20.321-9.438-24.997l-41.471-21.121h131.806
	c0.9,0.572,1.852,1.116,2.83,1.617c1.687,0.865,3.454,1.598,5.255,2.18c2.122,0.686,4.353,1.182,6.629,1.476
	c0.592,0.076,1.193,0.14,1.799,0.189l-73.223,69.411l-26.241-24.875C283.32,238.586,283.755,237.853,284.137,237.104z"/>
</svg>
