<?xml version="1.0" encoding="iso-8859-1"?>
<!-- Generator: Adobe Illustrator 25.0.0, SVG Export Plug-In . SVG Version: 6.00 Build 0)  -->
<svg version="1.1" id="&#x5716;&#x5C64;_1" xmlns="http://www.w3.org/2000/svg" xmlns:xlink="http://www.w3.org/1999/xlink" x="0px"
	 y="0px" viewBox="0 0 600.5 500.5" style="enable-background:new 0 0 600.5 500.5;" xml:space="preserve">
<g>
	<path d="M328.903,166.399h-167.88c-2.761,0-5-2.239-5-5s2.239-5,5-5h167.88c2.762,0,5,2.239,5,5S331.665,166.399,328.903,166.399z"
		/>
	<path d="M423.378,301.024H197.416c-2.761,0-5-2.238-5-5s2.239-5,5-5H419.79l42.126-124.625h-47.234c-2.762,0-5-2.239-5-5
		s2.238-5,5-5h54.202c1.611,0,3.123,0.776,4.063,2.085c0.939,1.309,1.19,2.99,0.674,4.516l-45.506,134.625
		C427.428,299.657,425.522,301.024,423.378,301.024z"/>
	<path d="M217.674,423.045c-20.216,0-36.664-16.447-36.664-36.664c0-20.216,16.447-36.663,36.664-36.663
		s36.664,16.447,36.664,36.663C254.338,406.598,237.891,423.045,217.674,423.045z M217.674,359.718
		c-14.702,0-26.664,11.961-26.664,26.663s11.961,26.664,26.664,26.664s26.664-11.962,26.664-26.664S232.376,359.718,217.674,359.718
		z"/>
	<path d="M375.035,423.045c-20.217,0-36.664-16.447-36.664-36.664c0-20.216,16.447-36.663,36.664-36.663
		c20.216,0,36.663,16.447,36.663,36.663C411.698,406.598,395.251,423.045,375.035,423.045z M375.035,359.718
		c-14.702,0-26.664,11.961-26.664,26.663s11.962,26.664,26.664,26.664s26.663-11.962,26.663-26.664S389.737,359.718,375.035,359.718
		z"/>
	<path d="M310.118,267.569c-1.449,0-2.836-0.63-3.789-1.738l-49.493-57.5c-1.801-2.093-1.565-5.25,0.528-7.051
		c2.094-1.801,5.251-1.564,7.051,0.528l45.022,52.306l82.054-133.826c1.443-2.354,4.521-3.092,6.876-1.649
		c2.354,1.443,3.093,4.522,1.649,6.876l-85.636,139.667c-0.835,1.361-2.27,2.242-3.861,2.37
		C310.386,267.564,310.251,267.569,310.118,267.569z"/>
	<path d="M547.148,379.864l-37.813-30.127l-6.78,26.473l-40.935-78.592l85.752,22.343l-24.29,12.521l37.813,30.128L547.148,379.864z
		 M505.823,339.267l40.372,32.166l6.269-7.869l-40.372-32.165l18.593-9.586l-57.5-14.981l27.448,52.701L505.823,339.267z"/>
	<path d="M430.561,345.029H170.892c-2.256,0-4.233-1.512-4.825-3.688l-54.246-199.627h-68c-2.761,0-5-2.239-5-5s2.239-5,5-5h71.823
		c2.256,0,4.233,1.511,4.825,3.689l54.246,199.626h255.846c2.762,0,5,2.238,5,5S433.322,345.029,430.561,345.029z"/>
</g>
</svg>
