<?xml version="1.0" encoding="utf-8"?>
<!-- Generator: Adobe Illustrator 21.0.0, SVG Export Plug-In . SVG Version: 6.00 Build 0)  -->
<svg version="1.1" id="Layer_1" xmlns="http://www.w3.org/2000/svg" xmlns:xlink="http://www.w3.org/1999/xlink" x="0px" y="0px"
	 viewBox="0 0 544 544" style="enable-background:new 0 0 544 544;" xml:space="preserve">
<style type="text/css">
	.st0{fill:#C6B191;}
</style>
<g>
	<path class="st0" d="M444.6,303.6C444.6,303.6,444.6,303.6,444.6,303.6c-10.9-10.9-28.6-10.9-39.5,0L282.8,425.8
		c-0.5,0.5-0.9,1.2-1.1,1.9l-16.5,60.7l-3.3,3.3c-2.3,2.3-3.6,5.4-3.6,8.6c0,2.9,1,5.6,2.8,7.8c0.4,0.8,1,1.4,1.8,1.8
		c2.2,1.8,4.9,2.8,7.8,2.8c3.2,0,6.4-1.3,8.6-3.5l3.3-3.3l60.5-16.7c0.7-0.2,1.4-0.6,1.9-1.1l122.2-122.2
		c10.9-10.9,10.9-28.6,0-39.5L444.6,303.6z M450,348.5L430.4,368l-27.7-27.7l19.5-19.5c1.4-1.4,3.7-1.4,5.1,0l22.6,22.6
		C451.3,344.8,451.3,347.1,450,348.5z M413.3,385.2l-75.4,75.4l-27.7-27.7l75.4-75.4L413.3,385.2z M314.4,471.6l-21,5.7l5.7-21
		L314.4,471.6z"/>
	<path class="st0" d="M480.1,54.2H65.5c-6.7,0-12.2,5.5-12.2,12.2v373.3c0,6.7,5.5,12.2,12.2,12.2h184.2c6.7,0,12.2-5.5,12.2-12.2
		c0-6.7-5.5-12.2-12.2-12.2H77.8V78.7h390.2v226c0,6.7,5.5,12.2,12.2,12.2c6.7,0,12.2-5.5,12.2-12.2V66.5
		C492.3,59.7,486.8,54.2,480.1,54.2z"/>
	<path class="st0" d="M401.3,163.5c8.4,0,15.3-6.8,15.3-15.3c-0.1-8.4-7-15.2-15.3-15.2h-10.4c-8.4,0-15.3,6.8-15.3,15.3
		s6.8,15.3,15.3,15.3H401.3z"/>
	<path class="st0" d="M143.6,163.5h199.6c8.4,0,15.3-6.8,15.3-15.3s-6.8-15.3-15.2-15.3H143.6c-8.4,0-15.3,6.8-15.3,15.3
		S135.2,163.5,143.6,163.5z"/>
	<path class="st0" d="M143.6,227.4h189.2c8.4,0,15.3-6.8,15.3-15.3s-6.8-15.3-15.3-15.3H143.6c-8.4,0-15.3,6.8-15.3,15.3
		S135.2,227.4,143.6,227.4z"/>
	<path class="st0" d="M279.6,275.9c0-8.4-6.8-15.3-15.3-15.3H143.6c-8.4,0-15.3,6.8-15.3,15.3s6.8,15.3,15.3,15.3h120.7
		C272.7,291.2,279.6,284.3,279.6,275.9z"/>
	<path class="st0" d="M143.6,323.3c-8.4,0-15.3,6.8-15.3,15.3s6.8,15.3,15.3,15.3h68.5c8.4,0,15.3-6.8,15.3-15.3
		s-6.8-15.3-15.3-15.3H143.6z"/>
</g>
</svg>
