<?xml version="1.0" encoding="utf-8"?>
<!-- Generator: Adobe Illustrator 21.0.0, SVG Export Plug-In . SVG Version: 6.00 Build 0)  -->
<svg version="1.1" id="Capa_1" xmlns="http://www.w3.org/2000/svg" xmlns:xlink="http://www.w3.org/1999/xlink" x="0px" y="0px"
	 viewBox="0 0 544 544" style="enable-background:new 0 0 544 544;" xml:space="preserve">
<style type="text/css">
	.st0{fill:#C6B191;}
</style>
<g>
	<path class="st0" d="M473.4,296.9v-17.3c-0.1-11.9-9.8-21.6-21.7-21.6h-17.3c-11.9,0-21.7,9.7-21.7,21.7v17.3
		c0,11.9,9.7,21.7,21.7,21.7h17.3C463.6,318.6,473.4,308.8,473.4,296.9z M450.5,280.6v15.2h-15.2v-15.2H450.5z"/>
	<path class="st0" d="M509.5,224.5c-5.8-5.8-13.4-8.9-21.4-8.9l-10.6-0.1l0.3-84.8c0-7.8-3-15.2-8.4-20.6
		c-5.5-5.5-12.8-8.5-20.6-8.5h-20.9V58.8c0-12.2-9.9-22.2-22.2-22.2H137.3c-12.2,0-22.2,9.9-22.2,22.2v42.5H95.6
		c-15.9,0-28.9,13-29.1,28.9l-0.3,83.7h-9.6c-16.6,0-30.2,13.6-30.4,30.2l-0.6,183.4c-0.1,8.1,3.1,15.7,8.8,21.5
		c5.7,5.7,13.3,8.9,21.4,9l54.6,0.2l-9.6,26.7c-1.8,4.7-1,10.2,1.9,14.4c2.9,4.2,7.7,6.8,12.9,6.8l312.4,1.1c5,0,9.8-2.4,12.8-6.5
		c3-4.1,3.8-9.5,2.1-14.4l-9.4-26.8l53.5,0.2h0.1c16.6,0,30.2-13.6,30.4-30.2l0.6-183.3C518.4,237.9,515.3,230.2,509.5,224.5z
		 M88.9,214.1l0.4-83.6v0c0-3.4,2.9-6.3,6.3-6.3h19.5v90.1L88.9,214.1z M138,59.5h267.4v155.8l-267.3-1L138,59.5z M428,215.3v-91
		h20.8c1.7,0,3.3,0.7,4.5,1.9c1.2,1.2,1.9,2.8,1.9,4.5l-0.3,84.8L428,215.3z M439.3,408.9l-0.1,27.9l-13.5-0.1l-9.8-27.9
		L439.3,408.9z M455.5,392.8c-4.2-4.2-9.7-6.5-15.8-6.6l-39.4-0.1l-255.6-0.9l-40.2-0.1h-0.1C92.1,385,82,395,82,407.3L82,435.5
		l-26-0.2c-4.2,0-7.6-3.5-7.6-7.7l0.7-183.3c0-4.2,3.4-7.6,7.6-7.6l20.8,0.1l410.4,1.5c4.2,0,7.6,3.5,7.6,7.7l-0.6,183.3v0
		c0,4.2-3.4,7.6-7.6,7.6l-25.3-0.1l0.1-28.3C462.1,402.6,459.7,397,455.5,392.8z M391.9,408.5l26.6,76l-292.9-1.1l11.8-32.7
		l15.4-43.1L391.9,408.5z M104.8,407.6l23.8,0.1l-10,27.9l-13.9-0.1L104.8,407.6z"/>
	<path class="st0" d="M314.5,150.8H172.3c-6.3,0-11.4,5.1-11.4,11.4c0,6.3,5.1,11.4,11.4,11.4h142.2c6.3,0,11.4-5.1,11.4-11.4
		C325.9,155.9,320.8,150.8,314.5,150.8z"/>
	<path class="st0" d="M374.5,150.8h-20.8c-6.3,0-11.4,5.1-11.4,11.4c0,6.3,5.1,11.4,11.4,11.4h20.8c6.3,0,11.4-5.1,11.4-11.4
		C385.9,155.9,380.8,150.8,374.5,150.8z"/>
	<path class="st0" d="M172.3,120.4h21.2c6.3,0,11.4-5.1,11.4-11.4l0-0.1c-0.2-6.3-5.1-11.2-11.4-11.2h-21.2
		c-6.3,0-11.4,5.1-11.4,11.4S166,120.4,172.3,120.4z"/>
	<path class="st0" d="M374.5,97.6H231.8c-6.3,0-11.4,5.1-11.4,11.4s5.1,11.4,11.4,11.4h142.7c6.3,0,11.4-5.1,11.4-11.4
		S380.8,97.6,374.5,97.6z"/>
</g>
</svg>
