<?xml version="1.0" encoding="utf-8"?>
<!-- Generator: Adobe Illustrator 21.0.0, SVG Export Plug-In . SVG Version: 6.00 Build 0)  -->
<svg version="1.1" id="Capa_1" xmlns="http://www.w3.org/2000/svg" xmlns:xlink="http://www.w3.org/1999/xlink" x="0px" y="0px"
	 viewBox="0 0 544 544" style="enable-background:new 0 0 544 544;" xml:space="preserve">
<style type="text/css">
	.st0{fill:#C6B191;}
</style>
<g>
	<path class="st0" d="M80,306.7c-7.4,0-13.5,6-13.5,13.5v36.6c0,7.4,6,13.5,13.5,13.5s13.5-6,13.5-13.5l0-36.7
		C93.3,312.7,87.3,306.7,80,306.7z"/>
	<path class="st0" d="M116.6,325c-7.4,0-13.5,6-13.5,13.5V375c0,7.4,6,13.5,13.5,13.5s13.5-6,13.5-13.5l0-36.7
		C129.9,331,123.9,325,116.6,325z"/>
	<path class="st0" d="M519,389.5L519,389.5c-9-31.1-30.6-56.8-59.5-70.8V137.1c0-4.7-2.5-9.1-6.6-11.6L251.6,6.5
		c-4.3-2.5-9.3-2.5-13.6,0L36.7,125.5c-0.7,0.4-1.1,0.8-1.5,1.2c-0.1,0.1-0.2,0.1-0.3,0.2c-0.5,0.4-1,0.9-1.5,1.4h-2.2v3.3
		c-0.5,1.1-0.9,2.4-1,3.7l0,0.1c0,0.1,0,0.1,0,0.2c-0.1,0.4-0.3,0.9-0.3,1.6V375c0,4.7,2.5,9.1,6.6,11.6l201.3,119l0.3,0.1
		c0.2,0.1,0.4,0.2,0.7,0.3l0.1,0c0.4,0.2,0.9,0.4,1.2,0.5c3.1,1.1,6.2,1.1,9.2,0l0.2-0.1c0.2-0.1,0.5-0.2,0.9-0.3l0.1,0
		c0.2-0.1,0.5-0.2,0.7-0.3l0.4-0.2l50.2-41.6c8.7,24.7,25.9,45,48.9,57.7c16.8,9.3,36.2,14,55.8,14c11.5,0,23.2-1.6,34.5-4.9
		C501.5,513.2,536.4,449.9,519,389.5z M295.8,435.7l-37.7,32.9v-20.3c0-7.4-6-13.5-13.5-13.5s-13.5,6-13.5,13.5v22.2L56.7,367.4
		V160.5l38.9,22.9v74.7c0,4.8,2.5,9.3,6.6,11.6l65.6,38.8c2.1,1.2,4.5,1.9,6.8,1.9c7.4,0,13.5-6,13.5-13.5v-58.8l43.3,25.7v148
		c0,7.4,6,13.5,13.5,13.5c7.4,0,13.5-6,13.5-13.5v-148L421.9,167c3.1-1.8,5.2-4.7,6.2-8.2c0.9-3.5,0.4-7.2-1.5-10.3
		c-3.8-6.3-12.1-8.4-18.4-4.7l-163.3,96.6l-43.8-26l175-103.4l56.7,33.5v164.8c-27.6-5.7-56.2-0.2-81.2,15.6
		c-25.7,16.3-44.8,42.4-52.5,71.6l0,0c-2.5,9.9-3.8,19.7-3.8,29.4C295.3,429.3,295.5,432.6,295.8,435.7z M219.6,94.8
		c-3.1,1.8-5.2,4.7-6.2,8.2c-0.9,3.5-0.4,7.2,1.5,10.3c3.8,6.3,12.1,8.4,18.4,4.7l77.1-45.5l39.2,23.2l-175,103.5l-39.2-23.2
		l70.4-41.6c3.1-1.8,5.2-4.7,6.2-8.2c0.9-3.5,0.4-7.2-1.5-10.3c-3.8-6.3-12.1-8.4-18.4-4.7l-83.1,49.1l-39.2-23.2l175-103.4
		l39.2,23.2L219.6,94.8z M161.1,222.2v51.2l-38.7-22.9v-51.2L161.1,222.2z M409.4,333.9c48.1,0,87.2,39.1,87.2,87.2
		s-39.1,87.2-87.2,87.2s-87.2-39.1-87.2-87.2S361.3,333.9,409.4,333.9z"/>
	<path class="st0" d="M386.3,453.4c2.5,2.5,5.9,3.9,9.5,3.9s7-1.4,9.5-3.9l41.2-41.2l0.1-0.1c5-5.3,4.8-13.7-0.3-18.8l0,0
		c-5.1-5-13.5-5-18.7,0L395.7,425l-4.2-4.2l-0.1-0.1c-5.4-5.1-13.7-5-18.9,0.3c-5,5.1-5,13.5,0,18.7L386.3,453.4z"/>
</g>
</svg>
